<?xml version="1.0" encoding="UTF-8"?>
<svg version="1.1" xmlns="http://www.w3.org/2000/svg" width="50" height="50">
<path d="M0 0 C1.53624023 0.00616333 1.53624023 0.00616333 3.10351562 0.01245117 C4.21597656 0.01438477 5.3284375 0.01631836 6.47460938 0.01831055 C8.22451172 0.03667969 8.22451172 0.03667969 10.00976562 0.05541992 C11.75966797 0.05638672 11.75966797 0.05638672 13.54492188 0.05737305 C22.22923833 0.10265627 22.22923833 0.10265627 24.50976562 1.24291992 C25.16976563 0.91291992 25.82976563 0.58291992 26.50976562 0.24291992 C28.67387247 0.12047703 30.84223086 0.0674085 33.00976562 0.05541992 C34.17507812 0.04124023 35.34039062 0.02706055 36.54101562 0.01245117 C39.50976562 0.24291992 39.50976562 0.24291992 41.50976562 2.24291992 C41.76855469 4.82495117 41.76855469 4.82495117 41.77539062 8.05541992 C41.77925781 9.79178711 41.77925781 9.79178711 41.78320312 11.56323242 C41.77546875 12.7775293 41.76773438 13.99182617 41.75976562 15.24291992 C41.77136719 17.06436523 41.77136719 17.06436523 41.78320312 18.92260742 C41.780625 20.08018555 41.77804688 21.23776367 41.77539062 22.43041992 C41.77313477 23.49647461 41.77087891 24.5625293 41.76855469 25.66088867 C41.50976562 28.24291992 41.50976562 28.24291992 39.50976562 30.24291992 C36.57617188 30.47338867 36.57617188 30.47338867 33.07226562 30.43041992 C31.34169922 30.42075195 31.34169922 30.42075195 29.57617188 30.41088867 C26.50976562 30.24291992 26.50976562 30.24291992 23.50976562 29.24291992 C23.17976563 29.57291992 22.84976562 29.90291992 22.50976562 30.24291992 C18.3701428 30.49593231 14.21870566 30.42814541 10.07226562 30.43041992 C8.90115234 30.44266602 7.73003906 30.45491211 6.5234375 30.4675293 C5.40646484 30.46946289 4.28949219 30.47139648 3.13867188 30.47338867 C2.10814697 30.47749756 1.07762207 30.48160645 0.01586914 30.48583984 C-2.49023438 30.24291992 -2.49023438 30.24291992 -4.49023438 28.24291992 C-4.68554688 26.07885742 -4.68554688 26.07885742 -4.61523438 23.61791992 C-4.5971875 22.8006543 -4.57914062 21.98338867 -4.56054688 21.14135742 C-4.53734375 20.51487305 -4.51414062 19.88838867 -4.49023438 19.24291992 C-3.17023437 18.58291992 -1.85023437 17.92291992 -0.49023438 17.24291992 C-0.49023438 15.92291992 -0.49023438 14.60291992 -0.49023438 13.24291992 C-1.81023438 12.91291992 -3.13023438 12.58291992 -4.49023438 12.24291992 C-4.54418916 10.6182815 -4.58300632 8.99313451 -4.61523438 7.36791992 C-4.6384375 6.46299805 -4.66164063 5.55807617 -4.68554688 4.62573242 C-4.40365923 1.18670311 -3.40487473 0.33214219 0 0 Z " fill="#F5F6F7" transform="translate(6.490234375,9.757080078125)"/>
<path d="M0 0 C1.74796875 -0.02126953 1.74796875 -0.02126953 3.53125 -0.04296875 C6.5 0.1875 6.5 0.1875 8.5 2.1875 C8.75878906 4.76953125 8.75878906 4.76953125 8.765625 8 C8.76949219 9.73636719 8.76949219 9.73636719 8.7734375 11.5078125 C8.76570313 12.72210938 8.75796875 13.93640625 8.75 15.1875 C8.75773437 16.40179687 8.76546875 17.61609375 8.7734375 18.8671875 C8.77085938 20.02476563 8.76828125 21.18234375 8.765625 22.375 C8.76336914 23.44105469 8.76111328 24.50710937 8.75878906 25.60546875 C8.5 28.1875 8.5 28.1875 6.5 30.1875 C3.53125 30.41796875 3.53125 30.41796875 0 30.375 C-1.1653125 30.36855469 -2.330625 30.36210938 -3.53125 30.35546875 C-6.5 30.1875 -6.5 30.1875 -8.5 29.1875 C-8.5 19.9475 -8.5 10.7075 -8.5 1.1875 C-5.65161879 -0.2366906 -3.17212092 0.01754492 0 0 Z " fill="#6CC188" transform="translate(39.5,9.8125)"/>
<path d="M0 0 C1.03688965 0.01047363 2.0737793 0.02094727 3.14208984 0.03173828 C4.26357422 0.03818359 5.38505859 0.04462891 6.54052734 0.05126953 C7.71615234 0.06802734 8.89177734 0.08478516 10.10302734 0.10205078 C11.87806641 0.11558594 11.87806641 0.11558594 13.68896484 0.12939453 C16.61885257 0.15302266 19.54834075 0.18596564 22.47802734 0.22705078 C22.14802734 1.21705078 21.81802734 2.20705078 21.47802734 3.22705078 C13.88802734 3.22705078 6.29802734 3.22705078 -1.52197266 3.22705078 C-1.52197266 5.53705078 -1.52197266 7.84705078 -1.52197266 10.22705078 C-0.88259766 10.43330078 -0.24322266 10.63955078 0.41552734 10.85205078 C2.47802734 12.22705078 2.47802734 12.22705078 3.47802734 15.10205078 C3.47802734 18.22705078 3.47802734 18.22705078 1.54052734 20.28955078 C0.85990234 20.92892578 0.17927734 21.56830078 -0.52197266 22.22705078 C-0.52197266 23.87705078 -0.52197266 25.52705078 -0.52197266 27.22705078 C6.73802734 27.55705078 13.99802734 27.88705078 21.47802734 28.22705078 C21.80802734 28.88705078 22.13802734 29.54705078 22.47802734 30.22705078 C18.35308583 30.28489786 14.2282479 30.32059485 10.10302734 30.35205078 C8.92740234 30.36880859 7.75177734 30.38556641 6.54052734 30.40283203 C4.85830078 30.4125 4.85830078 30.4125 3.14208984 30.42236328 C2.1052002 30.43283691 1.06831055 30.44331055 0 30.45410156 C-2.52197266 30.22705078 -2.52197266 30.22705078 -4.52197266 28.22705078 C-4.71728516 26.06298828 -4.71728516 26.06298828 -4.64697266 23.60205078 C-4.62892578 22.78478516 -4.61087891 21.96751953 -4.59228516 21.12548828 C-4.56908203 20.49900391 -4.54587891 19.87251953 -4.52197266 19.22705078 C-3.20197266 18.56705078 -1.88197266 17.90705078 -0.52197266 17.22705078 C-0.52197266 15.90705078 -0.52197266 14.58705078 -0.52197266 13.22705078 C-1.84197266 12.89705078 -3.16197266 12.56705078 -4.52197266 12.22705078 C-4.57592744 10.60241236 -4.6147446 8.97726537 -4.64697266 7.35205078 C-4.67017578 6.44712891 -4.69337891 5.54220703 -4.71728516 4.60986328 C-4.43355028 1.14829776 -3.42601131 0.30844051 0 0 Z " fill="#515760" transform="translate(6.52197265625,9.77294921875)"/>
<path d="M0 0 C2.12472576 -0.05386629 4.24983652 -0.09273071 6.375 -0.125 C7.55835938 -0.14820313 8.74171875 -0.17140625 9.9609375 -0.1953125 C13 0 13 0 15 2 C15.25878906 4.58203125 15.25878906 4.58203125 15.265625 7.8125 C15.26820312 8.97007813 15.27078125 10.12765625 15.2734375 11.3203125 C15.26570313 12.53460938 15.25796875 13.74890625 15.25 15 C15.25773437 16.21429687 15.26546875 17.42859375 15.2734375 18.6796875 C15.27085938 19.83726563 15.26828125 20.99484375 15.265625 22.1875 C15.26336914 23.25355469 15.26111328 24.31960937 15.25878906 25.41796875 C15 28 15 28 13 30 C9.9609375 30.1953125 9.9609375 30.1953125 6.375 30.125 C5.18648437 30.10695313 3.99796875 30.08890625 2.7734375 30.0703125 C1.85820313 30.04710938 0.94296875 30.02390625 0 30 C0.495 28.515 0.495 28.515 1 27 C4.63 27 8.26 27 12 27 C12 19.08 12 11.16 12 3 C8.37 3 4.74 3 1 3 C0.67 2.01 0.34 1.02 0 0 Z " fill="#485759" transform="translate(33,10)"/>
</svg>
