<svg width="21" height="20" viewBox="0 0 21 20" fill="none" xmlns="http://www.w3.org/2000/svg">
<g id="House">
<path id="Vector" d="M17.5961 8.10705L11.3461 2.21017C11.343 2.2075 11.3402 2.20463 11.3375 2.20158C11.1074 1.99231 10.8075 1.87634 10.4965 1.87634C10.1854 1.87634 9.88558 1.99231 9.65547 2.20158L9.64688 2.21017L3.40391 8.10705C3.27656 8.22414 3.17491 8.3664 3.10538 8.52482C3.03586 8.68323 2.99997 8.85436 3 9.02736V16.25C3 16.5815 3.1317 16.8995 3.36612 17.1339C3.60054 17.3683 3.91848 17.5 4.25 17.5H8C8.33152 17.5 8.64946 17.3683 8.88388 17.1339C9.1183 16.8995 9.25 16.5815 9.25 16.25V12.5H11.75V16.25C11.75 16.5815 11.8817 16.8995 12.1161 17.1339C12.3505 17.3683 12.6685 17.5 13 17.5H16.75C17.0815 17.5 17.3995 17.3683 17.6339 17.1339C17.8683 16.8995 18 16.5815 18 16.25V9.02736C18 8.85436 17.9641 8.68323 17.8946 8.52482C17.8251 8.3664 17.7234 8.22414 17.5961 8.10705ZM16.75 16.25H13V12.5C13 12.1685 12.8683 11.8506 12.6339 11.6161C12.3995 11.3817 12.0815 11.25 11.75 11.25H9.25C8.91848 11.25 8.60054 11.3817 8.36612 11.6161C8.1317 11.8506 8 12.1685 8 12.5V16.25H4.25V9.02736L4.25859 9.01955L10.5 3.12501L16.7422 9.01798L16.7508 9.0258L16.75 16.25Z" fill="#AAADB0"/>
</g>
</svg>
