<svg width="20" height="20" viewBox="0 0 20 20" fill="none" xmlns="http://www.w3.org/2000/svg">
<g id="Icon/System/share">
<g id="Union">
<path d="M13.343 3.10988C13.5977 2.85221 14.0106 2.85221 14.2653 3.10988L17.3088 6.18905C17.5635 6.44672 17.5635 6.8645 17.3088 7.12217L14.2653 10.2013C14.0106 10.459 13.5977 10.459 13.343 10.2013C13.0883 9.94366 13.0883 9.52588 13.343 9.26821L15.2734 7.31525H12.9537C12.1754 7.31525 10.9667 7.5534 9.93486 8.25803C8.93103 8.94356 8.06902 10.0843 7.93312 11.9817C7.90709 12.3451 7.59476 12.6184 7.23552 12.5921C6.87628 12.5658 6.60615 12.2498 6.63219 11.8863C6.79875 9.56079 7.89011 8.06229 9.20512 7.16425C10.4922 6.28531 11.9677 5.99561 12.9537 5.99561H15.273L13.343 4.04301C13.0883 3.78533 13.0883 3.36756 13.343 3.10988Z" fill="white"/>
<path d="M3.80435 15.7638H16.1957C16.3686 15.7638 16.5345 15.8333 16.6568 15.957C16.7791 16.0808 16.8478 16.2486 16.8478 16.4236C16.8478 16.5986 16.7791 16.7664 16.6568 16.8902C16.5345 17.0139 16.3686 17.0834 16.1957 17.0834H3.80435C3.45841 17.0834 3.12665 16.9444 2.88203 16.6969C2.63742 16.4494 2.5 16.1138 2.5 15.7638V5.86647C2.5 5.69147 2.56871 5.52365 2.69102 5.3999C2.81332 5.27616 2.97921 5.20665 3.15217 5.20665C3.32514 5.20665 3.49102 5.27616 3.61333 5.3999C3.73564 5.52365 3.80435 5.69147 3.80435 5.86647V15.7638Z" fill="white"/>
</g>
</g>
</svg>
