<svg width="18" height="19" viewBox="0 0 18 19" fill="none" xmlns="http://www.w3.org/2000/svg">
<path d="M14.625 3.09615H12.9375V2.54808C12.9375 2.40272 12.8782 2.26331 12.7727 2.16053C12.6673 2.05774 12.5242 2 12.375 2C12.2258 2 12.0827 2.05774 11.9773 2.16053C11.8718 2.26331 11.8125 2.40272 11.8125 2.54808V3.09615H6.1875V2.54808C6.1875 2.40272 6.12824 2.26331 6.02275 2.16053C5.91726 2.05774 5.77418 2 5.625 2C5.47582 2 5.33274 2.05774 5.22725 2.16053C5.12176 2.26331 5.0625 2.40272 5.0625 2.54808V3.09615H3.375C3.07663 3.09615 2.79048 3.21164 2.5795 3.41721C2.36853 3.62278 2.25 3.90159 2.25 4.19231V15.1538C2.25 15.4446 2.36853 15.7234 2.5795 15.9289C2.79048 16.1345 3.07663 16.25 3.375 16.25H14.625C14.9234 16.25 15.2095 16.1345 15.4205 15.9289C15.6315 15.7234 15.75 15.4446 15.75 15.1538V4.19231C15.75 3.90159 15.6315 3.62278 15.4205 3.41721C15.2095 3.21164 14.9234 3.09615 14.625 3.09615ZM5.0625 4.19231V4.74038C5.0625 4.88574 5.12176 5.02515 5.22725 5.12793C5.33274 5.23072 5.47582 5.28846 5.625 5.28846C5.77418 5.28846 5.91726 5.23072 6.02275 5.12793C6.12824 5.02515 6.1875 4.88574 6.1875 4.74038V4.19231H11.8125V4.74038C11.8125 4.88574 11.8718 5.02515 11.9773 5.12793C12.0827 5.23072 12.2258 5.28846 12.375 5.28846C12.5242 5.28846 12.6673 5.23072 12.7727 5.12793C12.8782 5.02515 12.9375 4.88574 12.9375 4.74038V4.19231H14.625V6.38462H3.375V4.19231H5.0625ZM14.625 15.1538H3.375V7.48077H14.625V15.1538Z" fill="#545759"/>
</svg>
