<svg width="17" height="16" viewBox="0 0 17 16" fill="none" xmlns="http://www.w3.org/2000/svg">
<path d="M14.3402 5.94881L8.88589 11.5037C8.83523 11.5554 8.77508 11.5964 8.70887 11.6243C8.64265 11.6523 8.57168 11.6667 8.5 11.6667C8.42832 11.6667 8.35735 11.6523 8.29113 11.6243C8.22492 11.5964 8.16476 11.5554 8.11411 11.5037L2.65984 5.94881C2.5575 5.84458 2.5 5.70321 2.5 5.5558C2.5 5.40839 2.5575 5.26702 2.65984 5.16279C2.76218 5.05856 2.90099 5 3.04573 5C3.19047 5 3.32928 5.05856 3.43162 5.16279L8.5 10.3254L13.5684 5.16279C13.6191 5.11118 13.6792 5.07024 13.7454 5.04231C13.8116 5.01438 13.8826 5 13.9543 5C14.0259 5 14.0969 5.01438 14.1631 5.04231C14.2293 5.07024 14.2895 5.11118 14.3402 5.16279C14.3908 5.2144 14.431 5.27567 14.4585 5.34311C14.4859 5.41054 14.5 5.48281 14.5 5.5558C14.5 5.62879 14.4859 5.70107 14.4585 5.7685C14.431 5.83593 14.3908 5.8972 14.3402 5.94881Z" fill="#545759"/>
</svg>
