<svg width="48" height="48" viewBox="0 0 48 48" fill="none" xmlns="http://www.w3.org/2000/svg">
<rect width="48" height="48" rx="8" fill="#EDEEEF"/>
<path d="M30.4929 18.5192H27.5415V17.9102C27.5415 17.4257 27.3549 16.961 27.0228 16.6184C26.6907 16.2758 26.2403 16.0833 25.7707 16.0833H22.229C21.7593 16.0833 21.3089 16.2758 20.9768 16.6184C20.6447 16.961 20.4582 17.4257 20.4582 17.9102V18.5192H17.5068C17.3502 18.5192 17.2001 18.5834 17.0894 18.6976C16.9787 18.8118 16.9165 18.9667 16.9165 19.1282C16.9165 19.2897 16.9787 19.4446 17.0894 19.5588C17.2001 19.673 17.3502 19.7372 17.5068 19.7372H18.0971V30.6987C18.0971 31.0217 18.2214 31.3315 18.4428 31.5599C18.6642 31.7883 18.9645 31.9166 19.2776 31.9166H28.7221C29.0352 31.9166 29.3354 31.7883 29.5568 31.5599C29.7782 31.3315 29.9026 31.0217 29.9026 30.6987V19.7372H30.4929C30.6494 19.7372 30.7996 19.673 30.9103 19.5588C31.021 19.4446 31.0832 19.2897 31.0832 19.1282C31.0832 18.9667 31.021 18.8118 30.9103 18.6976C30.7996 18.5834 30.6494 18.5192 30.4929 18.5192ZM21.6387 17.9102C21.6387 17.7487 21.7009 17.5938 21.8116 17.4796C21.9223 17.3654 22.0725 17.3013 22.229 17.3013H25.7707C25.9272 17.3013 26.0774 17.3654 26.1881 17.4796C26.2988 17.5938 26.3609 17.7487 26.3609 17.9102V18.5192H21.6387V17.9102ZM28.7221 30.6987H19.2776V19.7372H28.7221V30.6987ZM22.8193 22.782V27.6538C22.8193 27.8153 22.7571 27.9702 22.6464 28.0844C22.5357 28.1986 22.3856 28.2628 22.229 28.2628C22.0725 28.2628 21.9223 28.1986 21.8116 28.0844C21.7009 27.9702 21.6387 27.8153 21.6387 27.6538V22.782C21.6387 22.6205 21.7009 22.4656 21.8116 22.3514C21.9223 22.2372 22.0725 22.1731 22.229 22.1731C22.3856 22.1731 22.5357 22.2372 22.6464 22.3514C22.7571 22.4656 22.8193 22.6205 22.8193 22.782ZM26.3609 22.782V27.6538C26.3609 27.8153 26.2988 27.9702 26.1881 28.0844C26.0774 28.1986 25.9272 28.2628 25.7707 28.2628C25.6141 28.2628 25.464 28.1986 25.3533 28.0844C25.2426 27.9702 25.1804 27.8153 25.1804 27.6538V22.782C25.1804 22.6205 25.2426 22.4656 25.3533 22.3514C25.464 22.2372 25.6141 22.1731 25.7707 22.1731C25.9272 22.1731 26.0774 22.2372 26.1881 22.3514C26.2988 22.4656 26.3609 22.6205 26.3609 22.782Z" fill="#8E9194"/>
</svg>
