<svg width="50" height="50" viewBox="0 0 50 50" fill="none" xmlns="http://www.w3.org/2000/svg">
<g id="Icon/Nav/user">
<path id="Vector" d="M45.6424 42.9322C42.4172 37.4215 37.354 33.5547 31.4708 31.9148C34.3311 30.4771 36.6184 28.1288 37.9638 25.2485C39.3092 22.3682 39.6343 19.1238 38.8868 16.0384C38.1392 12.953 36.3625 10.2065 33.8432 8.2417C31.3239 6.27692 28.2087 5.20837 25.0001 5.20837C21.7914 5.20837 18.6763 6.27692 16.157 8.2417C13.6376 10.2065 11.8609 12.953 11.1134 16.0384C10.3658 19.1238 10.6909 22.3682 12.0364 25.2485C13.3818 28.1288 15.669 30.4771 18.5293 31.9148C12.6461 33.5527 7.58296 37.4195 4.35779 42.9322C4.26923 43.0699 4.20977 43.224 4.18298 43.385C4.15618 43.5461 4.16262 43.7108 4.20189 43.8694C4.24117 44.0279 4.31247 44.177 4.4115 44.3076C4.51054 44.4381 4.63527 44.5476 4.77819 44.6293C4.92111 44.7109 5.07926 44.7632 5.24313 44.7829C5.407 44.8026 5.57321 44.7893 5.73174 44.7438C5.89028 44.6983 6.03788 44.6216 6.16566 44.5182C6.29343 44.4149 6.39875 44.2871 6.47526 44.1424C10.394 37.4477 17.3176 33.4518 25.0001 33.4518C32.6825 33.4518 39.6061 37.4477 43.5249 44.1424C43.6014 44.2871 43.7067 44.4149 43.8345 44.5182C43.9623 44.6216 44.1099 44.6983 44.2684 44.7438C44.427 44.7893 44.5932 44.8026 44.757 44.7829C44.9209 44.7632 45.0791 44.7109 45.222 44.6293C45.3649 44.5476 45.4896 44.4381 45.5887 44.3076C45.6877 44.177 45.759 44.0279 45.7983 43.8694C45.8375 43.7108 45.844 43.5461 45.8172 43.385C45.7904 43.224 45.7309 43.0699 45.6424 42.9322ZM13.1684 19.3322C13.1684 17.0183 13.8623 14.7564 15.1624 12.8325C16.4624 10.9086 18.3103 9.40908 20.4723 8.5236C22.6342 7.63812 25.0132 7.40643 27.3083 7.85785C29.6035 8.30926 31.7117 9.4235 33.3664 11.0597C35.0211 12.6958 36.1479 14.7804 36.6045 17.0498C37.061 19.3192 36.8267 21.6715 35.9312 23.8093C35.0357 25.947 33.5192 27.7742 31.5734 29.0597C29.6277 30.3452 27.3402 31.0313 25.0001 31.0313C21.8633 31.0276 18.856 29.7938 16.638 27.6006C14.4199 25.4074 13.1721 22.4338 13.1684 19.3322Z" fill="black" fill-opacity="0.16"/>
</g>
</svg>
